<?xml version="1.0" standalone="no"?><!DOCTYPE svg PUBLIC "-//W3C//DTD SVG 1.1//EN" "http://www.w3.org/Graphics/SVG/1.1/DTD/svg11.dtd"><svg t="1583756128963" class="icon" viewBox="0 0 1024 1024" version="1.1" xmlns="http://www.w3.org/2000/svg" p-id="5190" xmlns:xlink="http://www.w3.org/1999/xlink" width="200" height="200"><defs><style type="text/css"></style></defs><path d="M877.714286 0c20.004571 0 36.571429 16.566857 36.571428 36.571429v950.857142c0 20.004571-16.566857 36.571429-36.571428 36.571429H146.285714c-20.004571 0-36.571429-16.566857-36.571428-36.571429V36.571429c0-20.004571 16.566857-36.571429 36.571428-36.571429h731.428572zM402.285714 164.571429v36.571428c0 10.276571 8.009143 18.285714 18.285715 18.285714h36.571428c10.276571 0 18.285714-8.009143 18.285714-18.285714v-36.571428c0-10.276571-8.009143-18.285714-18.285714-18.285715h-36.571428c-10.276571 0-18.285714 8.009143-18.285715 18.285715z m0 146.285714v36.571428c0 10.276571 8.009143 18.285714 18.285715 18.285715h36.571428c10.276571 0 18.285714-8.009143 18.285714-18.285715v-36.571428c0-10.276571-8.009143-18.285714-18.285714-18.285714h-36.571428c-10.276571 0-18.285714 8.009143-18.285715 18.285714z m0 146.285714v36.571429c0 10.276571 8.009143 18.285714 18.285715 18.285714h36.571428c10.276571 0 18.285714-8.009143 18.285714-18.285714v-36.571429c0-10.276571-8.009143-18.285714-18.285714-18.285714h-36.571428c-10.276571 0-18.285714 8.009143-18.285715 18.285714z m0 146.285714v36.571429c0 10.276571 8.009143 18.285714 18.285715 18.285714h36.571428c10.276571 0 18.285714-8.009143 18.285714-18.285714v-36.571429c0-10.276571-8.009143-18.285714-18.285714-18.285714h-36.571428c-10.276571 0-18.285714 8.009143-18.285715 18.285714z m-73.142857 182.857143v-36.571428c0-10.276571-8.009143-18.285714-18.285714-18.285715h-36.571429c-10.276571 0-18.285714 8.009143-18.285714 18.285715v36.571428c0 10.276571 8.009143 18.285714 18.285714 18.285715h36.571429c10.276571 0 18.285714-8.009143 18.285714-18.285715z m0-146.285714v-36.571429c0-10.276571-8.009143-18.285714-18.285714-18.285714h-36.571429c-10.276571 0-18.285714 8.009143-18.285714 18.285714v36.571429c0 10.276571 8.009143 18.285714 18.285714 18.285714h36.571429c10.276571 0 18.285714-8.009143 18.285714-18.285714z m0-146.285714v-36.571429c0-10.276571-8.009143-18.285714-18.285714-18.285714h-36.571429c-10.276571 0-18.285714 8.009143-18.285714 18.285714v36.571429c0 10.276571 8.009143 18.285714 18.285714 18.285714h36.571429c10.276571 0 18.285714-8.009143 18.285714-18.285714z m0-146.285715v-36.571428c0-10.276571-8.009143-18.285714-18.285714-18.285714h-36.571429c-10.276571 0-18.285714 8.009143-18.285714 18.285714v36.571428c0 10.276571 8.009143 18.285714 18.285714 18.285715h36.571429c10.276571 0 18.285714-8.009143 18.285714-18.285715z m0-146.285714v-36.571428c0-10.276571-8.009143-18.285714-18.285714-18.285715h-36.571429c-10.276571 0-18.285714 8.009143-18.285714 18.285715v36.571428c0 10.276571 8.009143 18.285714 18.285714 18.285714h36.571429c10.276571 0 18.285714-8.009143 18.285714-18.285714z m292.571429 731.428572v-109.714286c0-10.276571-8.009143-18.285714-18.285715-18.285714h-182.857142c-10.276571 0-18.285714 8.009143-18.285715 18.285714v109.714286c0 10.276571 8.009143 18.285714 18.285715 18.285714h182.857142c10.276571 0 18.285714-8.009143 18.285715-18.285714z m0-292.571429v-36.571429c0-10.276571-8.009143-18.285714-18.285715-18.285714h-36.571428c-10.276571 0-18.285714 8.009143-18.285714 18.285714v36.571429c0 10.276571 8.009143 18.285714 18.285714 18.285714h36.571428c10.276571 0 18.285714-8.009143 18.285715-18.285714z m0-146.285714v-36.571429c0-10.276571-8.009143-18.285714-18.285715-18.285714h-36.571428c-10.276571 0-18.285714 8.009143-18.285714 18.285714v36.571429c0 10.276571 8.009143 18.285714 18.285714 18.285714h36.571428c10.276571 0 18.285714-8.009143 18.285715-18.285714z m0-146.285715v-36.571428c0-10.276571-8.009143-18.285714-18.285715-18.285714h-36.571428c-10.276571 0-18.285714 8.009143-18.285714 18.285714v36.571428c0 10.276571 8.009143 18.285714 18.285714 18.285715h36.571428c10.276571 0 18.285714-8.009143 18.285715-18.285715z m0-146.285714v-36.571428c0-10.276571-8.009143-18.285714-18.285715-18.285715h-36.571428c-10.276571 0-18.285714 8.009143-18.285714 18.285715v36.571428c0 10.276571 8.009143 18.285714 18.285714 18.285714h36.571428c10.276571 0 18.285714-8.009143 18.285715-18.285714z m146.285714 585.142857v-36.571428c0-10.276571-8.009143-18.285714-18.285714-18.285715h-36.571429c-10.276571 0-18.285714 8.009143-18.285714 18.285715v36.571428c0 10.276571 8.009143 18.285714 18.285714 18.285715h36.571429c10.276571 0 18.285714-8.009143 18.285714-18.285715z m0-146.285714v-36.571429c0-10.276571-8.009143-18.285714-18.285714-18.285714h-36.571429c-10.276571 0-18.285714 8.009143-18.285714 18.285714v36.571429c0 10.276571 8.009143 18.285714 18.285714 18.285714h36.571429c10.276571 0 18.285714-8.009143 18.285714-18.285714z m0-146.285714v-36.571429c0-10.276571-8.009143-18.285714-18.285714-18.285714h-36.571429c-10.276571 0-18.285714 8.009143-18.285714 18.285714v36.571429c0 10.276571 8.009143 18.285714 18.285714 18.285714h36.571429c10.276571 0 18.285714-8.009143 18.285714-18.285714z m0-146.285715v-36.571428c0-10.276571-8.009143-18.285714-18.285714-18.285714h-36.571429c-10.276571 0-18.285714 8.009143-18.285714 18.285714v36.571428c0 10.276571 8.009143 18.285714 18.285714 18.285715h36.571429c10.276571 0 18.285714-8.009143 18.285714-18.285715z m0-146.285714v-36.571428c0-10.276571-8.009143-18.285714-18.285714-18.285715h-36.571429c-10.276571 0-18.285714 8.009143-18.285714 18.285715v36.571428c0 10.276571 8.009143 18.285714 18.285714 18.285714h36.571429c10.276571 0 18.285714-8.009143 18.285714-18.285714z" fill="" p-id="5191"></path></svg>