<?xml version="1.0" standalone="no"?><!DOCTYPE svg PUBLIC "-//W3C//DTD SVG 1.1//EN" "http://www.w3.org/Graphics/SVG/1.1/DTD/svg11.dtd"><svg t="1583756603800" class="icon" viewBox="0 0 1026 1024" version="1.1" xmlns="http://www.w3.org/2000/svg" p-id="18692" xmlns:xlink="http://www.w3.org/1999/xlink" width="200.390625" height="200"><defs><style type="text/css"></style></defs><path d="M398.528 1018.88C179.2 1018.88 0 839.744 0 620.864c0-218.496 179.2-397.632 398.528-397.632 218.496 0 397.248 179.2 397.248 397.632C795.776 839.744 617.024 1018.88 398.528 1018.88zM398.528 267.264c-195.2 0-354.048 159.296-354.048 353.6 0 194.752 158.848 354.048 354.048 354.048 193.408 0 353.088-159.296 353.088-354.048C751.616 426.56 591.936 267.264 398.528 267.264z" p-id="18693"></path><path d="M705.088 640.704c-177.024 0-320.384-143.296-320.384-320.32C384.704 143.36 528 0 705.088 0c177.024 0 320.384 143.36 320.384 320.32C1025.408 497.344 882.048 640.704 705.088 640.704zM705.088 24.192c-163.2 0-297.92 132.544-297.92 298.304 0 163.648 132.096 298.368 297.92 298.368 163.136 0 298.752-132.544 298.752-298.368C1003.84 156.736 868.16 24.192 705.088 24.192z" p-id="18694"></path></svg>